<?xml version="1.0" standalone="no"?>
<!DOCTYPE svg PUBLIC "-//W3C//DTD SVG 20010904//EN"
 "http://www.w3.org/TR/2001/REC-SVG-20010904/DTD/svg10.dtd">
<svg version="1.0" xmlns="http://www.w3.org/2000/svg"
 width="400.000000pt" height="400.000000pt" viewBox="0 0 400.000000 400.000000"
 preserveAspectRatio="xMidYMid meet">
<metadata>
Created by potrace 1.11, written by Peter Selinger 2001-2013
</metadata>
<g transform="translate(0.000000,400.000000) scale(0.100000,-0.100000)"
fill="#000000" stroke="none">
<path d="M1732 3695 c-6 -49 -28 -228 -48 -397 -21 -169 -41 -305 -44 -303 -4
2 -51 76 -106 165 l-99 160 -22 -72 c-12 -40 -34 -129 -50 -196 l-29 -124 -48
94 c-27 51 -81 153 -119 227 l-70 134 -26 -54 c-14 -30 -67 -141 -118 -248
-51 -107 -92 -195 -91 -196 18 -14 48 -22 68 -18 22 4 33 23 84 153 33 82 62
147 67 145 4 -3 62 -94 130 -202 67 -109 132 -207 144 -218 l22 -21 27 141
c15 77 32 162 38 188 l10 49 110 -149 c60 -81 115 -151 122 -155 9 -5 19 59
41 262 16 148 30 268 32 267 1 -2 32 -113 68 -247 36 -134 68 -246 70 -249 6
-5 -3 -23 88 164 54 108 81 154 87 145 4 -8 27 -79 51 -157 24 -79 45 -143 49
-143 3 0 75 106 160 234 85 129 156 233 158 231 3 -3 31 -486 32 -555 l1 -35
20 25 c166 205 222 270 229 265 4 -3 36 -50 70 -105 66 -106 88 -121 123 -82
16 18 13 24 -53 112 -38 51 -88 121 -111 156 -23 35 -45 64 -48 64 -4 0 -41
-49 -82 -110 -41 -60 -77 -109 -80 -110 -3 0 -11 105 -19 233 -7 127 -18 281
-24 342 l-11 109 -169 -299 c-92 -165 -171 -303 -175 -307 -3 -4 -28 77 -55
180 -27 103 -52 190 -55 194 -4 5 -29 -45 -56 -110 -27 -64 -62 -146 -78 -182
l-29 -65 -83 365 c-45 201 -84 372 -87 380 -2 8 -10 -25 -16 -75z"/>
<path d="M3128 2895 c-35 -20 -58 -64 -58 -111 0 -28 8 -44 34 -70 19 -19 41
-34 50 -34 14 0 16 -28 16 -252 0 -227 -16 -677 -24 -685 -2 -2 -28 8 -59 23
l-57 25 0 177 c0 97 -3 220 -6 273 l-7 96 -66 36 c-281 152 -720 228 -1192
207 -277 -13 -446 -42 -609 -107 -68 -27 -185 -98 -209 -126 -11 -14 -10 -67
4 -333 9 -174 15 -317 13 -318 -21 -17 -138 -72 -138 -65 0 33 -34 496 -50
687 l-21 234 31 34 c24 27 30 44 30 79 0 84 -73 132 -160 106 -54 -16 -80 -52
-80 -111 0 -54 23 -90 69 -110 22 -9 32 -21 36 -44 7 -45 52 -560 67 -767 l12
-176 -35 -54 c-51 -77 -70 -133 -76 -219 -11 -160 61 -310 194 -401 78 -54 76
-60 97 328 22 416 30 463 39 243 4 -91 10 -203 14 -250 6 -84 6 -85 -14 -68
-28 26 -33 23 -33 -21 0 -32 5 -44 29 -60 l28 -20 7 -163 7 -163 32 -27 c18
-16 82 -66 142 -111 185 -140 301 -206 458 -259 88 -30 99 -31 242 -30 251 1
473 51 680 153 55 27 126 68 157 91 55 41 58 47 106 168 28 69 67 177 88 240
23 71 45 120 57 129 16 11 18 22 14 58 -2 25 1 67 9 95 7 28 17 76 21 107 7
50 9 41 14 -84 4 -77 7 -201 8 -275 2 -74 5 -142 9 -150 14 -31 52 -15 149 63
78 63 144 146 186 234 30 64 32 74 32 183 0 113 -1 116 -39 192 -25 52 -59 99
-101 141 l-63 63 14 165 c7 90 19 310 26 489 l12 325 27 23 c15 12 33 38 39
57 10 30 9 41 -7 72 -10 20 -29 45 -43 55 -35 26 -118 33 -152 13z"/>
</g>
</svg>
